<svg width="81" height="63" viewBox="0 0 81 63" fill="none" xmlns="http://www.w3.org/2000/svg">
<path d="M40.6257 15.5868H42.8336C48.8523 15.5868 52.4503 17.6312 53.6279 21.7199C54.0041 23.0447 54.1921 24.5739 54.1921 26.3075V49H40.6257V15.5868ZM22.4226 15.5868H36.0627V49H22.4226V15.5868ZM4.17051 15.5868H17.8105V49H4.17051V15.5868Z" fill="white"/>
<path d="M63.7299 15.6114H77.3454V24.8846H74.794C70.3618 24.8846 67.3362 24.1895 65.717 22.7994C64.3923 21.6545 63.7299 19.8064 63.7299 17.255V15.6114ZM46.2873 15.6114H59.4858V29.0551H69.3233V35.4581H59.4858V48.9509H46.2873V15.6114ZM63.7054 46.6204C63.7054 43.2349 65.668 40.937 69.5932 39.7267C71.0978 39.2688 73.0359 39.0398 75.4073 39.0398H77.3454V49H63.7054V46.6204Z" fill="#8A2BE2" fill-opacity="0.5"/>
</svg>
